<svg xmlns="http://www.w3.org/2000/svg" viewBox="0 0 120 80" fill="none">
  <rect width="120" height="80" rx="6" fill="#E8F4FF"/>
  <!-- Unité intérieure clim -->
  <rect x="22" y="22" width="54" height="22" rx="4" fill="#0077A8" opacity="0.12" stroke="#0077A8" stroke-width="1.5"/>
  <!-- Grilles de soufflage -->
  <line x1="30" y1="28" x2="68" y2="28" stroke="#0077A8" stroke-width="1" opacity="0.5" stroke-dasharray="3 2"/>
  <line x1="30" y1="32" x2="68" y2="32" stroke="#0077A8" stroke-width="1" opacity="0.5" stroke-dasharray="3 2"/>
  <line x1="30" y1="36" x2="68" y2="36" stroke="#0077A8" stroke-width="1" opacity="0.5" stroke-dasharray="3 2"/>
  <!-- Voyant LED -->
  <circle cx="66" cy="26" r="2" fill="#00C875"/>
  <!-- Flocon de neige -->
  <line x1="90" y1="20" x2="90" y2="36" stroke="#0077A8" stroke-width="2" stroke-linecap="round"/>
  <line x1="82" y1="28" x2="98" y2="28" stroke="#0077A8" stroke-width="2" stroke-linecap="round"/>
  <line x1="84" y1="22" x2="96" y2="34" stroke="#0077A8" stroke-width="1.5" stroke-linecap="round"/>
  <line x1="96" y1="22" x2="84" y2="34" stroke="#0077A8" stroke-width="1.5" stroke-linecap="round"/>
  <!-- Branche flocon -->
  <line x1="90" y1="24" x2="86" y2="20" stroke="#0077A8" stroke-width="1" stroke-linecap="round"/>
  <line x1="90" y1="24" x2="94" y2="20" stroke="#0077A8" stroke-width="1" stroke-linecap="round"/>
  <line x1="90" y1="32" x2="86" y2="36" stroke="#0077A8" stroke-width="1" stroke-linecap="round"/>
  <line x1="90" y1="32" x2="94" y2="36" stroke="#0077A8" stroke-width="1" stroke-linecap="round"/>
  <!-- Flux d'air -->
  <path d="M24 52 Q32 48 40 52" stroke="#0077A8" stroke-width="1.5" fill="none" stroke-linecap="round"/>
  <path d="M30 56 Q38 52 46 56" stroke="#0077A8" stroke-width="1.5" fill="none" stroke-linecap="round" opacity="0.6"/>
  <text x="60" y="74" text-anchor="middle" font-family="Inter,sans-serif" font-size="8" fill="#0077A8" font-weight="600">Climaticien</text>
</svg>
