<svg xmlns="http://www.w3.org/2000/svg" viewBox="0 0 120 80" fill="none">
  <rect width="120" height="80" rx="6" fill="#E8F5F2"/>
  <!-- Tuyau horizontal -->
  <rect x="16" y="36" width="36" height="8" rx="2" fill="#006B5E" opacity="0.2" stroke="#006B5E" stroke-width="1.5"/>
  <!-- Tuyau vertical montant -->
  <rect x="44" y="20" width="8" height="24" rx="2" fill="#006B5E" opacity="0.2" stroke="#006B5E" stroke-width="1.5"/>
  <!-- Coude -->
  <path d="M44 28 Q44 20 52 20" stroke="#006B5E" stroke-width="2" fill="none" stroke-linecap="round"/>
  <!-- Tuyau horizontal droite -->
  <rect x="52" y="16" width="36" height="8" rx="2" fill="#006B5E" opacity="0.2" stroke="#006B5E" stroke-width="1.5"/>
  <!-- Robinet -->
  <circle cx="72" cy="20" r="5" fill="#006B5E" opacity="0.3" stroke="#006B5E" stroke-width="1.5"/>
  <line x1="72" y1="13" x2="72" y2="27" stroke="#006B5E" stroke-width="2" stroke-linecap="round"/>
  <!-- Clé à molette -->
  <path d="M24 50 L36 60 M36 60 C38 62 41 62 43 60 C45 58 45 55 43 53 C41 51 38 51 36 53 L24 42 C22 40 22 37 24 35 C26 33 29 33 31 35 L43 46" stroke="#006B5E" stroke-width="2" stroke-linecap="round" fill="none" opacity="0.8"/>
  <text x="60" y="74" text-anchor="middle" font-family="Inter,sans-serif" font-size="8" fill="#006B5E" font-weight="600">Plomberie-Chauffage</text>
</svg>
